<svg width="48" height="48" viewBox="0 0 48 48" fill="none" xmlns="http://www.w3.org/2000/svg">
<path fill-rule="evenodd" clip-rule="evenodd" d="M24 2.50439C23.0347 2.50439 22.0864 2.75834 21.2503 3.24073L7.39791 11.239C6.56184 11.7217 5.86756 12.416 5.38484 13.252C4.90212 14.0881 4.64797 15.0366 4.64795 16.002V31.996C4.64795 33.9616 5.69563 35.7772 7.39855 36.7594L21.2503 44.7592C22.047 45.2189 22.9456 45.4711 23.8637 45.4939C23.9086 45.4979 23.954 45.5 24 45.5C24.046 45.5 24.0915 45.4979 24.1364 45.4939C25.0545 45.4711 25.9533 45.2186 26.75 44.759L40.602 36.761C41.438 36.2783 42.1323 35.584 42.6151 34.7479C43.0978 33.9119 43.3519 32.9635 43.352 31.998V16.002C43.352 14.0366 42.3039 12.2208 40.6014 11.2386L26.7496 3.24073C25.9135 2.75834 24.9652 2.50439 24 2.50439ZM39.1019 34.163L25.5 42.0166V24.8659L40.352 16.2906V31.998C40.3519 32.4368 40.2364 32.8679 40.017 33.2479C39.7976 33.628 39.4819 33.9436 39.1019 34.163ZM22.5 42.0166V24.866L14.618 20.315C14.5983 20.3042 14.5788 20.293 14.5596 20.2813L7.64795 16.2906V31.996C7.64795 32.8904 8.12426 33.7147 8.89735 34.1606L22.5 42.0166ZM18.3413 19.0006L33.2019 10.4304L38.8519 13.6926L24 22.2679L18.3413 19.0006ZM15.3405 17.2681L9.14806 13.6926L22.7496 5.83924C23.1297 5.62003 23.5612 5.50439 24 5.50439C24.4387 5.50439 24.8702 5.62003 25.2503 5.83924L30.2012 8.69781L15.3405 17.2681Z" fill="white"/>
<path fill-rule="evenodd" clip-rule="evenodd" d="M11.0424 24.5074C11.4581 23.7908 12.3759 23.5468 13.0925 23.9625L19.0925 27.4425C19.8092 27.8581 20.0532 28.776 19.6375 29.4926C19.2219 30.2092 18.304 30.4532 17.5874 30.0376L11.5874 26.5576C10.8708 26.1419 10.6268 25.2241 11.0424 24.5074Z" fill="white"/>
</svg>
