<svg width="16" height="16" viewBox="0 0 16 16" fill="none" xmlns="http://www.w3.org/2000/svg">
<path fill-rule="evenodd" clip-rule="evenodd" d="M9.83337 1.33997C10.1095 1.33997 10.3334 1.56382 10.3334 1.83997V7.16663C10.3334 7.44277 10.1095 7.66663 9.83337 7.66663C9.55723 7.66663 9.33337 7.44277 9.33337 7.16663V1.83997C9.33337 1.56382 9.55723 1.33997 9.83337 1.33997Z" fill="white"/>
<path fill-rule="evenodd" clip-rule="evenodd" d="M5.83337 2.52002C6.10952 2.52002 6.33337 2.74388 6.33337 3.02002V12.5C6.33337 12.7762 6.10952 13 5.83337 13C5.55723 13 5.33337 12.7762 5.33337 12.5V3.02002C5.33337 2.74388 5.55723 2.52002 5.83337 2.52002Z" fill="white"/>
<path fill-rule="evenodd" clip-rule="evenodd" d="M9.7594 10.062C10.0355 10.062 10.2594 10.2859 10.2594 10.562V13.3333H13.4387V10.562C13.4387 10.2859 13.6626 10.062 13.9387 10.062C14.2149 10.062 14.4387 10.2859 14.4387 10.562V13.5C14.4387 13.721 14.3509 13.933 14.1947 14.0893C14.0384 14.2455 13.8264 14.3333 13.6054 14.3333H10.0927C9.87172 14.3333 9.65976 14.2455 9.50348 14.0893C9.3472 13.933 9.2594 13.721 9.2594 13.5V10.562C9.2594 10.2859 9.48326 10.062 9.7594 10.062Z" fill="white"/>
<path fill-rule="evenodd" clip-rule="evenodd" d="M11.6145 8.74805C11.7836 8.6376 12.0025 8.63968 12.1694 8.7533L14.7814 10.5313C15.0096 10.6867 15.0687 10.9977 14.9133 11.226C14.758 11.4543 14.4469 11.5133 14.2187 11.358L11.8823 9.7676L9.44016 11.3632C9.20899 11.5142 8.89914 11.4493 8.7481 11.2181C8.59707 10.9869 8.66203 10.6771 8.8932 10.526L11.6145 8.74805Z" fill="white"/>
<path fill-rule="evenodd" clip-rule="evenodd" d="M10.4128 1.42761C10.0368 1.30227 9.63025 1.30196 9.25402 1.4267L10.4128 1.42761ZM10.4128 1.42761L13.5354 2.46825C13.5354 2.46826 13.5353 2.46824 13.5354 2.46825C13.7677 2.54566 13.9699 2.69427 14.1132 2.89297C14.2564 3.09166 14.3334 3.33038 14.3334 3.57529C14.3334 3.57533 14.3334 3.57525 14.3334 3.57529V7.83329C14.3334 8.10944 14.1095 8.33329 13.8334 8.33329C13.5572 8.33329 13.3334 8.10944 13.3334 7.83329V3.57529C13.3334 3.5403 13.3224 3.50607 13.3019 3.47768C13.2815 3.44929 13.2526 3.42806 13.2194 3.41701L10.0966 2.37631C9.92542 2.31925 9.74032 2.31906 9.56901 2.37579C9.56892 2.37583 9.5691 2.37576 9.56901 2.37579L6.41299 3.42758C6.41292 3.4276 6.41306 3.42756 6.41299 3.42758C6.03669 3.55311 5.6296 3.55318 5.25329 3.42765L2.55271 2.52767C2.52767 2.51935 2.50094 2.51706 2.47487 2.52105C2.44876 2.52503 2.42398 2.53517 2.40256 2.55062C2.38114 2.56606 2.36369 2.58638 2.35167 2.60989C2.33964 2.6334 2.33337 2.65943 2.33337 2.68584V10.2453C2.33337 10.3083 2.36879 10.3662 2.42602 10.3949C2.42607 10.395 2.42597 10.3949 2.42602 10.3949L5.46094 11.9121C5.57653 11.97 5.70442 12.0003 5.83371 12.0003C5.96299 12.0003 6.09049 11.9702 6.20608 11.9123L6.94294 11.5435C7.18988 11.4199 7.49026 11.5199 7.61384 11.7669C7.73742 12.0138 7.63742 12.3142 7.39048 12.4378L6.654 12.8063C6.65394 12.8064 6.65407 12.8063 6.654 12.8063C6.39943 12.9338 6.11843 13.0003 5.83371 13.0003C5.54905 13.0003 5.26832 12.934 5.01379 12.8065C5.01366 12.8065 5.01392 12.8066 5.01379 12.8065L1.97847 11.2892C1.58379 11.0913 1.33337 10.6876 1.33337 10.2453L1.33337 2.68608C1.33337 2.68604 1.33337 2.68612 1.33337 2.68608C1.33335 2.50126 1.37723 2.31896 1.46141 2.15442C1.54561 1.98985 1.66771 1.84764 1.81765 1.73951C1.96759 1.63139 2.14108 1.56044 2.32382 1.53252C2.50656 1.5046 2.69332 1.5205 2.86871 1.57891L5.56945 2.47894C5.74041 2.53599 5.92547 2.53606 6.09642 2.47901L9.25402 1.4267" fill="white"/>
</svg>
