<svg width="49" height="48" viewBox="0 0 49 48" fill="none" xmlns="http://www.w3.org/2000/svg">
<path fill-rule="evenodd" clip-rule="evenodd" d="M6.61091 6.11091C7.64236 5.07946 9.04131 4.5 10.5 4.5H36.5C37.9587 4.5 39.3576 5.07946 40.3891 6.11091C41.4205 7.14236 42 8.54131 42 10V22C42 22.8284 41.3284 23.5 40.5 23.5C39.6716 23.5 39 22.8284 39 22V10C39 9.33696 38.7366 8.70107 38.2678 8.23223C37.7989 7.76339 37.163 7.5 36.5 7.5H10.5C9.83696 7.5 9.20107 7.76339 8.73223 8.23223C8.26339 8.70107 8 9.33696 8 10V38C8 38.663 8.26339 39.2989 8.73223 39.7678C9.20107 40.2366 9.83696 40.5 10.5 40.5H20.5C21.3284 40.5 22 41.1716 22 42C22 42.8284 21.3284 43.5 20.5 43.5H10.5C9.04131 43.5 7.64236 42.9205 6.61091 41.8891C5.57946 40.8576 5 39.4587 5 38V10C5 8.54131 5.57946 7.14236 6.61091 6.11091Z" fill="white"/>
<path fill-rule="evenodd" clip-rule="evenodd" d="M29.986 29.136C29.8389 29.1361 29.695 29.1793 29.5722 29.2603C29.4494 29.3413 29.3531 29.4566 29.2952 29.5918L28.2021 32.1495C28.15 32.2722 28.1077 32.398 28.0756 32.5258C28.2157 32.5087 28.3574 32.5 28.5 32.5H34V29.136H29.986ZM37 32.5H42.5C42.6424 32.5 42.7839 32.5087 42.9238 32.5257C42.8919 32.3996 42.8501 32.2758 42.7988 32.1556L41.7028 29.5917C41.5844 29.3149 41.3124 29.136 41.014 29.136H37V32.5ZM43 36C43 35.8674 42.9473 35.7402 42.8536 35.6464C42.7598 35.5527 42.6326 35.5 42.5 35.5H28.5C28.3674 35.5 28.2402 35.5527 28.1464 35.6464C28.0527 35.7402 28 35.8674 28 36V41.75C28 41.9489 28.079 42.1397 28.2197 42.2803C28.3603 42.421 28.5511 42.5 28.75 42.5H42.5C42.6326 42.5 42.7598 42.4473 42.8536 42.3535C42.9473 42.2598 43 42.1326 43 42V36ZM25 36V33.134C25 32.3899 25.1516 31.6562 25.4419 30.9745L26.5367 28.4125C26.8256 27.7373 27.3068 27.161 27.9198 26.7564C28.5329 26.3518 29.2512 26.1361 29.9857 26.136H35.5H41.014C42.5156 26.136 43.8716 27.0331 44.4612 28.4123L45.5573 30.9764C45.8493 31.6595 45.9999 32.3949 46 33.1379V36V42C46 42.9282 45.6313 43.8185 44.9749 44.4749C44.3185 45.1312 43.4283 45.5 42.5 45.5H28.75C27.7554 45.5 26.8016 45.1049 26.0983 44.4016C25.3951 43.6984 25 42.7445 25 41.75V36Z" fill="white"/>
<path fill-rule="evenodd" clip-rule="evenodd" d="M12.75 15.5C13.7165 15.5 14.5 14.7165 14.5 13.75C14.5 12.7835 13.7165 12 12.75 12C11.7835 12 11 12.7835 11 13.75C11 14.7165 11.7835 15.5 12.75 15.5ZM17.5 14.24C17.5 13.4116 18.1716 12.74 19 12.74H32.5C33.3284 12.74 34 13.4116 34 14.24C34 15.0684 33.3284 15.74 32.5 15.74H19C18.1716 15.74 17.5 15.0684 17.5 14.24ZM19 20.5C18.1716 20.5 17.5 21.1716 17.5 22C17.5 22.8284 18.1716 23.5 19 23.5H26.5C27.3284 23.5 28 22.8284 28 22C28 21.1716 27.3284 20.5 26.5 20.5H19ZM19 28.5C18.1716 28.5 17.5 29.1716 17.5 30C17.5 30.8284 18.1716 31.5 19 31.5H20.5C21.3284 31.5 22 30.8284 22 30C22 29.1716 21.3284 28.5 20.5 28.5H19ZM14.5 22.01C14.5 22.9765 13.7165 23.76 12.75 23.76C11.7835 23.76 11 22.9765 11 22.01C11 21.0435 11.7835 20.26 12.75 20.26C13.7165 20.26 14.5 21.0435 14.5 22.01ZM12.75 31.76C13.7165 31.76 14.5 30.9765 14.5 30.01C14.5 29.0435 13.7165 28.26 12.75 28.26C11.7835 28.26 11 29.0435 11 30.01C11 30.9765 11.7835 31.76 12.75 31.76Z" fill="white"/>
</svg>
